<svg xmlns="http://www.w3.org/2000/svg" width="832" height="210" fill="none" viewBox="0 0 832 210"><path fill="#0067fb" d="M9.85 41.56C.496 47.267-.51 56.916.17 61.205c.019.12.03.232.03.353.184 46.485.44 140.17 0 144.45-.416 4.03 3.039 4.27 5.134 3.839.253-.052.48-.16.691-.309 20.424-14.45 61.532-43.447 65.044-45.579 3.53-2.142 4.596-6.428 4.688-8.303V4.333c0-4.99-3.636-4.667-5.615-3.828-.118.05-.224.112-.329.185-16.15 11.293-50.506 35.104-59.962 40.87"/><path fill="#016ffb" d="M37.755 42.418c-9.419 5.904-9.78 16.016-9.51 20.323s.365 48.355-.073 52.729c-.411 4.107 3.008 4.357 5.089 3.92a1.8 1.8 0 0 0 .7-.321c20.28-14.75 61.088-44.34 64.575-46.516 3.504-2.187 4.563-6.56 4.654-8.474V4.422c0-5.091-3.607-4.764-5.572-3.908a1.8 1.8 0 0 0-.331.191C81.251 12.231 47.143 36.532 37.755 42.418" opacity=".9"/><path fill="#0387fb" d="M62.105 42.418c-9.418 5.904-9.78 16.016-9.51 20.323s.366 48.355-.072 52.729c-.412 4.107 3.007 4.357 5.088 3.92a1.8 1.8 0 0 0 .7-.321c20.28-14.75 61.089-44.34 64.575-46.516 3.505-2.187 4.563-6.56 4.654-8.474V4.422c0-5.091-3.606-4.764-5.572-3.908a1.8 1.8 0 0 0-.331.191c-16.036 11.526-50.144 35.827-59.532 41.713" opacity=".9"/><path fill="#01a9fb" d="M144.428.5C146.393-.358 150-.685 150 4.406v59.657c-.091 1.914-1.15 6.287-4.654 8.474-2.658 1.658-31.582 23.022-50.726 36.783L75.757 140.02v-23.167c-.056-.354 0-3.876 0-4.308l-.268-50.357c0-4.846-.343-13.88 9.076-19.785C93.953 36.518 128.06 12.216 144.097.69c.105-.076.212-.139.331-.19" opacity=".9"/><path fill="#3c3c3c" d="M767.675 152.168v-94.08h21.376q7.169 0 13.824 1.408 6.784 1.408 12.032 4.736t8.32 8.832q3.072 5.505 3.072 13.568 0 9.345-4.352 16.256-4.352 6.912-13.184 10.624l22.4 38.656h-16.512l-18.944-35.584q-2.177.128-5.376.256h-8.704v35.328zm13.952-46.976h9.088q7.04 0 11.264-1.792 4.352-1.792 6.656-4.48 2.304-2.816 3.072-6.016.896-3.328.896-6.144 0-6.272-2.944-9.856-2.816-3.712-7.936-5.248-4.992-1.665-11.52-1.664h-8.576zM663.979 153.448q-9.6 0-18.176-3.328a45.5 45.5 0 0 1-14.976-9.6q-6.528-6.4-10.368-15.36-3.712-8.96-3.712-20.224 0-11.393 3.712-20.352 3.84-8.96 10.368-15.232 6.656-6.272 15.104-9.472 8.575-3.328 18.048-3.328t17.92 3.328q8.576 3.2 15.104 9.472 6.655 6.272 10.368 15.232 3.84 8.96 3.84 20.352 0 11.264-3.84 20.224-3.712 8.96-10.24 15.36-6.528 6.272-15.104 9.6-8.448 3.328-18.048 3.328m0-12.928q8.704 0 16-4.096t11.648-11.904q4.352-7.936 4.352-19.456 0-11.647-4.352-19.456-4.352-7.936-11.648-11.904-7.168-4.096-16-4.096t-16.128 4.096q-7.169 3.967-11.52 11.904-4.352 7.807-4.352 19.456 0 11.52 4.48 19.456 4.48 7.807 11.776 11.904t15.744 4.096M545.044 152.168v-94.08h14.336v94.08zM449.908 152.168l-43.52-94.08h16.256l28.16 64.64 28.288-64.64h16.128l-43.392 94.08zM334.609 57.96h1.408l45.312 94.208h-16.512l-8.064-18.432h-43.136l-8.064 18.432h-16zm.64 27.264-5.632 12.8-10.24 22.784h31.744l-10.112-22.656-5.504-12.928zM200 152.168v-94.08h20.736q12.288 0 19.712 3.584t10.752 9.984q3.328 6.272 3.328 14.464 0 14.976-8.704 23.168-8.704 8.064-26.368 8.064h-4.992v34.816zm14.464-47.488h5.376q8.448 0 12.8-2.688 4.352-2.687 5.888-6.656t1.536-7.68q0-4.48-1.664-8.32t-5.76-6.272-11.52-2.432h-6.656z"/></svg>