<svg width="67" height="67" viewBox="0 0 67 67" fill="none" xmlns="http://www.w3.org/2000/svg">
<circle cx="33.5" cy="33.5" r="33.5" fill="#0067FB"/>
<path d="M27.2482 41.2389L22.2009 30.4432C22.2009 30.4432 30.9636 22.5216 32.6461 21.0496C34.3285 19.5776 36.0109 19.788 36.9223 21.4702C37.8336 23.1525 43.1613 34.0183 43.5819 35.771C44.0025 37.5237 43.4417 38.7855 41.6892 39.2059C39.9366 39.6264 27.2482 41.2389 27.2482 41.2389Z" fill="white"/>
<path d="M18.0877 37.665C17.0462 35.4167 18.0245 32.7498 20.2729 31.7083L25.0398 41.9992C22.7915 43.0406 20.1246 42.0623 19.0831 39.814L18.0877 37.665Z" fill="white"/>
<path d="M25.6357 43.9156L32.5057 42.8641L32.903 43.9815C33.538 45.7671 32.5975 47.7282 30.8075 48.3509C29.0327 48.9682 27.0926 48.0356 26.4661 46.264L25.6357 43.9156Z" fill="white"/>
<path d="M50.8145 25.1404L45.647 27.1967C45.2599 27.3507 44.8212 27.1612 44.6681 26.7737C44.5155 26.3876 44.7043 25.9508 45.0901 25.7973L50.2576 23.7409C50.6447 23.5869 51.0833 23.7764 51.2365 24.1639C51.389 24.55 51.2003 24.9868 50.8145 25.1404Z" fill="white"/>
<path d="M50.7519 31.9204C49.4186 31.7454 46.8983 31.5511 45.5658 31.3815C45.152 31.3288 44.9109 30.9323 45.0195 30.5295C45.1279 30.1278 45.5448 29.8706 45.9574 29.9242C47.2877 30.0968 49.8061 30.2916 51.1427 30.4667C51.5565 30.5209 51.7963 30.9208 51.6867 31.3234C51.5779 31.7234 51.1629 31.9744 50.7519 31.9204Z" fill="white"/>
<path d="M42.1702 22.8038C43.0722 21.6834 44.955 19.5532 45.8578 18.4291C46.1183 18.1048 46.5942 18.0033 46.9482 18.2215C47.303 18.4402 47.4021 18.8953 47.1416 19.2205C46.2385 20.348 44.3524 22.4778 43.4511 23.596C43.1906 23.9191 42.715 24.02 42.3617 23.8022C42.0069 23.5835 41.9088 23.1284 42.1702 22.8038Z" fill="white"/>
</svg>
