<svg width="67" height="67" viewBox="0 0 67 67" fill="none" xmlns="http://www.w3.org/2000/svg">
<circle cx="33.5" cy="33.5" r="33.5" fill="#0067FB"/>
<path d="M16.0398 45.7709V30.339C16.0398 29.4724 17.0669 29.016 17.71 29.5968L25.2929 36.4448C25.6996 36.8121 25.735 37.4383 25.3721 37.849L17.7893 46.4329C17.1795 47.1232 16.0398 46.6919 16.0398 45.7709Z" fill="white"/>
<path d="M51.218 45.7709V30.339C51.218 29.4724 50.1909 29.016 49.5478 29.5968L41.9649 36.4448C41.5582 36.8121 41.5229 37.4383 41.8857 37.849L49.4686 46.4329C50.0783 47.1232 51.218 46.6919 51.218 45.7709Z" fill="white"/>
<path d="M44.5469 17.5875H22.9375C21.8329 17.5875 20.9375 18.4829 20.9375 19.5875V28.3736C20.9375 28.9684 21.2022 29.5323 21.6598 29.9123L32.4966 38.9111C33.25 39.5367 34.3456 39.5247 35.0852 38.8829L45.8578 29.5337C46.2955 29.1538 46.5469 28.6028 46.5469 28.0232V19.5875C46.5469 18.4829 45.6515 17.5875 44.5469 17.5875Z" fill="white"/>
<path d="M33.2579 42.619L28.6455 39.0428C28.2287 38.7196 27.6325 38.7757 27.2833 39.171L19.6478 47.8149C19.0776 48.4605 19.5359 49.477 20.3973 49.477H46.7075C47.5718 49.477 48.0291 48.4545 47.4529 47.8103L39.7657 39.2159C39.3966 38.8033 38.7625 38.769 38.3511 39.1395L34.5399 42.5718C34.1803 42.8957 33.6404 42.9156 33.2579 42.619Z" fill="white"/>
<path d="M33.2875 21.965L29.4103 27.7614C29.2009 28.0743 29.3995 28.4976 29.774 28.5367L32.1517 28.7847C32.4356 28.8143 32.6371 29.0751 32.5942 29.3572L32.1865 32.0363C32.1059 32.5659 32.8016 32.8343 33.0975 32.3878L37.1236 26.3139C37.3439 25.9815 37.1056 25.5376 36.7068 25.5376H34.2893C33.9832 25.5376 33.7489 25.265 33.795 24.9624L34.1974 22.3182C34.2778 21.7898 33.5846 21.5207 33.2875 21.965Z" fill="#0067FB"/>
</svg>
