<svg width="67" height="67" viewBox="0 0 67 67" fill="none" xmlns="http://www.w3.org/2000/svg">
<circle cx="33.5" cy="33.5" r="33.5" fill="#0067FB"/>
<path d="M47.3218 26.2846C47.3218 22.2996 44.0913 19.0692 40.1064 19.0692C36.1214 19.0692 32.891 22.2996 32.891 26.2846C32.891 30.2695 36.1214 33.5 40.1064 33.5C44.0913 33.5 47.3218 30.2695 47.3218 26.2846Z" fill="white"/>
<path d="M30.2673 26.2846C30.2673 28.2529 30.8454 30.0862 31.8408 31.624C30.5592 32.7896 28.8564 33.5 26.9876 33.5C23.0026 33.5 19.7722 30.2695 19.7722 26.2846C19.7722 22.2996 23.0026 19.0692 26.9876 19.0692C28.8564 19.0692 30.5592 19.7796 31.8408 20.9451C30.8454 22.483 30.2673 24.3163 30.2673 26.2846Z" fill="white"/>
<path d="M49.2896 41.3713C49.2896 38.4732 46.9401 36.1237 44.042 36.1237H36.1707C33.2726 36.1237 30.9231 38.4732 30.9231 41.3713V46.6188C30.9231 47.3434 31.5104 47.9307 32.235 47.9307H47.9777C48.7022 47.9307 49.2896 47.3434 49.2896 46.6188V41.3713Z" fill="white"/>
<path d="M28.2994 41.3713V47.9307H19.1162C18.3917 47.9307 17.8043 47.3434 17.8043 46.6188V41.3713C17.8043 38.4732 20.1537 36.1237 23.0518 36.1237H30.3037C29.0574 37.5163 28.2994 39.3553 28.2994 41.3713Z" fill="white"/>
</svg>
