<svg width="67" height="67" viewBox="0 0 67 67" fill="none" xmlns="http://www.w3.org/2000/svg">
<circle cx="33.5" cy="33.5" r="33.5" fill="#0067FB"/>
<path d="M40.6437 33.7577C40.6437 29.5173 37.2414 26.0799 33.0444 26.0799C28.8475 26.0799 25.4452 29.5173 25.4452 33.7577C25.4452 37.998 28.8475 41.4355 33.0444 41.4355V53.0846C22.4797 53.0846 13.9153 44.4316 13.9153 33.7577C13.9153 23.0837 22.4797 14.4308 33.0444 14.4308C36.7952 14.4308 40.2939 15.5214 43.2467 17.406C47.8012 16.8236 49.9874 16.4555 53.0845 16.4555C52.7201 19.7687 51.4449 24.5544 51.0197 27.1313C51.7663 29.1981 52.1736 31.4298 52.1736 33.7577C52.1736 44.4316 43.6092 53.0846 33.0444 53.0846V41.4355C37.2414 41.4355 40.6437 37.998 40.6437 33.7577Z" fill="white"/>
</svg>
