<svg width="67" height="67" viewBox="0 0 67 67" fill="none" xmlns="http://www.w3.org/2000/svg">
<circle cx="33.5" cy="33.5" r="33.5" fill="#0067FB"/>
<path d="M33.2731 12.8848C33.0382 12.8814 32.805 12.9248 32.5869 13.0124C32.3689 13.1001 32.1705 13.2301 32.0032 13.3951C31.8359 13.56 31.703 13.7566 31.6123 13.9734C31.5217 14.1901 31.475 14.4227 31.475 14.6577C31.475 14.8926 31.5217 15.1253 31.6123 15.342C31.703 15.5588 31.8359 15.7553 32.0032 15.9203C32.1705 16.0852 32.3689 16.2153 32.5869 16.3029C32.805 16.3905 33.0382 16.4339 33.2731 16.4306C42.5962 16.4306 50.1159 23.9503 50.1159 33.2734C50.1159 42.5964 42.5962 50.1161 33.2731 50.1161C23.9501 50.1161 16.4304 42.5964 16.4304 33.2734C16.4304 28.4193 18.4763 24.0614 21.7491 20.991V24.4088C21.7458 24.6437 21.7892 24.8769 21.8768 25.095C21.9644 25.313 22.0945 25.5114 22.2595 25.6787C22.4244 25.846 22.621 25.9789 22.8377 26.0696C23.0545 26.1602 23.2871 26.2069 23.5221 26.2069C23.757 26.2069 23.9896 26.1602 24.2064 26.0696C24.4231 25.9789 24.6197 25.846 24.7847 25.6787C24.9496 25.5114 25.0797 25.313 25.1673 25.095C25.2549 24.8769 25.2983 24.6437 25.295 24.4088V14.6577H15.5439C15.309 14.6544 15.0757 14.6978 14.8577 14.7854C14.6397 14.873 14.4413 15.003 14.274 15.168C14.1066 15.333 13.9738 15.5295 13.8831 15.7463C13.7924 15.963 13.7457 16.1956 13.7457 16.4306C13.7457 16.6656 13.7924 16.8982 13.8831 17.1149C13.9738 17.3317 14.1066 17.5282 14.274 17.6932C14.4413 17.8582 14.6397 17.9882 14.8577 18.0758C15.0757 18.1634 15.309 18.2069 15.5439 18.2035H19.5555C15.4612 21.9351 12.8845 27.3095 12.8845 33.2734C12.8845 44.5127 22.0338 53.662 33.2731 53.662C44.5125 53.662 53.6618 44.5127 53.6618 33.2734C53.6618 22.034 44.5125 12.8848 33.2731 12.8848Z" fill="white"/>
<path d="M32.1007 26.7099C30.251 25.5693 27.8306 26.8568 27.8306 28.9813V38.0186C27.8306 40.1432 30.251 41.4307 32.1007 40.2901L39.4284 35.7714C41.1441 34.7135 41.1441 32.2865 39.4284 31.2286L32.1007 26.7099Z" fill="white"/>
</svg>
