<svg width="67" height="67" viewBox="0 0 67 67" fill="none" xmlns="http://www.w3.org/2000/svg">
<circle cx="33.5" cy="33.5" r="33.5" fill="#0067FB"/>
<path d="M17.0078 22.3782C17.0078 21.2396 17.9308 20.3167 19.0694 20.3167H28.8806C30.0192 20.3167 30.9421 21.2396 30.9421 22.3782V32.1894C30.9421 33.328 30.0192 34.251 28.8806 34.251H19.0694C17.9308 34.251 17.0078 33.328 17.0078 32.1894V22.3782Z" fill="white"/>
<path d="M17.0078 38.6349C17.0078 37.4963 17.9308 36.5734 19.0694 36.5734H28.8806C30.0192 36.5734 30.9421 37.4963 30.9421 38.6349V48.4462C30.9421 49.5847 30.0192 50.5077 28.8806 50.5077H19.0694C17.9308 50.5077 17.0078 49.5847 17.0078 48.4462V38.6349Z" fill="white"/>
<path d="M33.2646 38.6349C33.2646 37.4963 34.1876 36.5734 35.3262 36.5734H45.1374C46.276 36.5734 47.199 37.4963 47.199 38.6349V48.4462C47.199 49.5847 46.276 50.5077 45.1374 50.5077H35.3262C34.1876 50.5077 33.2646 49.5847 33.2646 48.4462V38.6349Z" fill="white"/>
<path d="M34.7224 26.257C33.9173 25.4519 33.9173 24.1466 34.7224 23.3415L41.66 16.4039C42.4651 15.5988 43.7704 15.5988 44.5754 16.4039L51.513 23.3415C52.3181 24.1466 52.3181 25.4519 51.513 26.257L44.5754 33.1946C43.7704 33.9996 42.4651 33.9996 41.66 33.1946L34.7224 26.257Z" fill="white"/>
</svg>
